<svg xmlns="http://www.w3.org/2000/svg" viewBox="0 0 50 50"><path d="M 25 0 C 11.193 0 0 11.193 0 25 C 0 38.807 11.193 50 25 50 C 37.387 50 47.671 40.99 49.655 29.166 L 49.475 29.166 C 47.625 36.355 41.1 41.666 33.334 41.666 C 24.129 41.666 16.666 34.204 16.666 25 C 16.666 15.795 24.129 8.334 33.334 8.334 C 41.1 8.334 47.625 13.645 49.475 20.834 L 49.655 20.834 C 47.671 9.009 37.387 0 25 0 Z" fill="rgb(238, 236, 232)" opacity="0.8"/><path d="M 0 25 C 0 11.192 11.193 0 25 0 C 37.387 0 47.671 9.01 49.655 20.834 L 32.809 20.834 C 30.959 13.645 24.434 8.334 16.666 8.334 C 7.462 8.334 0 15.796 0 25 Z M 0 25 C 0 38.807 11.193 50 25 50 C 37.387 50 47.671 40.991 49.655 29.167 L 32.809 29.167 C 30.959 36.355 24.434 41.667 16.666 41.667 C 7.462 41.667 0 34.205 0 25 Z" fill="rgb(238, 236, 232)"/></svg>
